<svg xmlns="http://www.w3.org/2000/svg" width="628" height="628" viewBox="0 0 628 628">
  <g fill="none" fill-rule="evenodd">
    <g fill="#57A4FF" transform="translate(30 10)">
      <path d="M443.586731,83.8749922 C455.605225,80.774006 467.376526,76.7877313 478.811645,71.9557316 C425.719666,27.1719568 358.829406,2.05743243 289.393066,0.840777044 C349.11969,2.70532614 403.220215,33.9327976 443.586731,83.8749922 Z"/>
      <path d="M386.084839 95.1710876C405.464722 92.579514 424.666625 88.8059057 443.586731 83.8749922 403.220215 33.9327976 349.11969 2.70532614 289.393066.820995306L289.170594.820995306C327.30249 4.10991943 361.464477 39.7539475 386.08484 95.1710876zM289.066773.81110317C288.162049.677567576 287.247437.642947002 286.332824.707242715 285.393494.628110699 284.444275.593490125 283.5.608327694 285.413269.608327694 287.2771.791320166 289.170594.830886175L289.066773.81110317zM443.586731 525.070605C455.605225 528.176536 467.376526 532.162812 478.811645 536.99481 517.512086 504.511117 547.511352 462.887677 566.090332 415.893151L500.075135 415.893151C488.452148 455.587748 469.27002 492.661098 443.586731 525.070605z"/>
      <path d="M289.066773.81110317C288.429016.727025719 287.786316.692405146 287.143615.707242715 285.932373.608327694 284.716187.608327694 283.5.608327694 284.444275.593490125 285.393494.628110699 286.332824.707242715 287.247437.642947002 288.162049.677567576 289.066773.81110317zM283.5 608.342215C284.444275 608.357053 285.393494 608.322432 286.332824 608.238355 287.247437 608.307595 288.162049 608.272974 289.066773 608.139439L289.170594 608.139439C287.267211 608.159223 285.403381 608.342215 283.5 608.342215z"/>
      <path d="M386.084839,513.779456 C352.085998,509.204636 317.810303,506.959265 283.5,507.053234 L283.5,608.342215 C285.403381,608.342215 287.267211,608.159223 289.170594,608.119657 C327.30249,604.835678 361.464477,569.201541 386.084839,513.779456 Z"/>
      <path d="M283.5 608.342215C284.716187 608.342215 285.932373 608.342215 287.143615 608.238355 287.786316 608.258137 288.429016 608.223517 289.066773 608.139439 288.162049 608.272974 287.247437 608.307595 286.332824 608.238355 285.393494 608.322432 284.444275 608.357053 283.5 608.342215zM180.915161 513.779456C205.505859 569.201541 239.69751 604.835678 277.829406 608.119657 279.732789 608.119657 281.596619 608.342215 283.5 608.342215L283.5 507.053234C249.189697 506.959265 214.914002 509.204636 180.915161 513.779456zM386.084839 95.1710876C361.464477 39.7539475 327.30249 4.10991943 289.170594.830886175 287.2771.791320166 285.413269.608327694 283.5.608327694L283.5 101.897309C317.810303 101.991279 352.085998 99.745907 386.084839 95.1710876z"/>
      <path d="M277.933227 608.139439C278.837951 608.272974 279.752563 608.307595 280.667176 608.238355 281.606506 608.322432 282.555725 608.357053 283.5 608.342215 281.596619 608.342215 279.732789 608.159223 277.829406 608.119657L277.933227 608.139439zM443.586731 525.070605C424.666625 520.139691 405.464722 516.371029 386.084839 513.779456 361.494141 569.201541 327.30249 604.835678 289.170594 608.119657L289.383179 608.119657C349.109803 606.245217 403.220215 575.027636 443.586731 525.070605z"/>
      <path d="M289.383179 608.119657C358.819519 606.893111 425.714722 581.778586 478.811645 536.99481 467.376526 532.162812 455.605225 528.176536 443.586731 525.070605 403.220215 575.027636 349.109803 606.245217 289.383179 608.119657zM386.084839 95.1710876C399.61615 126.546932 409.429688 159.39661 415.327697 193.057392L500.075135 193.057392C488.457092 153.362794 469.274963 116.289444 443.586731 83.8749922 424.666625 88.8059057 405.464722 92.579514 386.084839 95.1710876z"/>
      <path d="M283.5 101.897309L283.5 193.057392 415.327697 193.057392C409.429688 159.39661 399.61615 126.546932 386.08484 95.1710876 352.085998 99.745907 317.810303 101.991279 283.5 101.897309zM478.811645 71.9557316C467.376526 76.7877313 455.605225 80.774006 443.586731 83.8749922 469.274963 116.289444 488.457092 153.362794 500.075135 193.057392L566.090332 193.057392C547.511352 146.05792 517.512086 104.439424 478.811645 71.9557316zM180.915161 95.1710876C167.38385 126.546932 157.570312 159.39661 151.672303 193.057392L283.5 193.057392 283.5 101.897309C249.189697 101.991279 214.914002 99.745907 180.915161 95.1710876z"/>
      <path d="M180.915161,95.1710876 C214.914002,99.745907 249.189697,101.991279 283.5,101.897309 L283.5,0.608327694 C281.586731,0.608327694 279.7229,0.791320166 277.829406,0.830886175 C239.69751,4.10991943 205.535523,39.7539475 180.915161,95.1710876 Z"/>
      <path d="M283.5,0.608327694 C282.555725,0.593490125 281.606506,0.628110699 280.667176,0.707242715 C279.752563,0.642947002 278.837951,0.677567576 277.933227,0.81110317 L277.829406,0.81110317 C279.7229,0.791320166 281.586731,0.608327694 283.5,0.608327694 Z"/>
      <path d="M283.5.608327694C282.283813.608327694 281.067627.608327694 279.856385.707242715 279.213684.692405146 278.570984.727025719 277.933227.81110317 278.837951.677567576 279.752563.642947002 280.667176.707242715 281.606506.628110699 282.555725.593490125 283.5.608327694zM123.413269 83.8749922C142.333375 88.8059057 161.535278 92.579514 180.91516 95.1710876 205.505859 39.7539475 239.69751 4.10991943 277.829406.830886175L277.606934.830886175C217.88031 2.70532614 163.779785 33.9327976 123.413269 83.8749922zM88.1883551 71.9557316C49.4879144 104.439424 19.4886481 146.05792.909667969 193.057392L66.9248654 193.057392C78.542908 153.362794 97.7250369 116.289444 123.413269 83.8749922 111.394775 80.774006 99.6234744 76.7877313 88.1883551 71.9557316z"/>
      <path d="M123.413269 83.8749922C97.7250369 116.289444 78.542908 153.362794 66.9248654 193.057392L151.672303 193.057392C157.570312 159.39661 167.38385 126.546932 180.915161 95.1710876 161.535278 92.579514 142.333375 88.8059057 123.413269 83.8749922zM277.606934.840777044C208.170594 2.05743243 141.280334 27.1719568 88.1883551 71.9557316 99.6234744 76.7877313 111.394775 80.774006 123.413269 83.8749922 163.779785 33.9327976 217.88031 2.70532614 277.606934.840777044zM277.933227 608.139439C278.570984 608.223517 279.213684 608.258137 279.856385 608.238355 281.067627 608.342215 282.283813 608.342215 283.5 608.342215 282.555725 608.357053 281.606506 608.322432 280.667176 608.238355 279.752563 608.307595 278.837951 608.272974 277.933227 608.139439zM66.9248654 415.893151L.909667969 415.893151C19.4886481 462.887677 49.4879144 504.511117 88.1883551 536.99481 99.6234744 532.162812 111.394775 528.176536 123.413269 525.070605 97.7299805 492.661098 78.5478516 455.587748 66.9248654 415.893151zM283.5 507.053234L283.5 415.893151 151.672303 415.893151C157.570312 449.548986 167.38385 482.403611 180.915161 513.779456 214.914002 509.204636 249.189697 506.959265 283.5 507.053234z"/>
      <path d="M123.413269 525.070605C111.394775 528.176536 99.6234744 532.162812 88.1883551 536.99481 141.285278 581.778586 208.180481 606.893111 277.616821 608.119657 217.890197 606.245217 163.779785 575.027636 123.413269 525.070605zM386.084839 513.779456C399.61615 482.403611 409.429688 449.548986 415.327697 415.893151L283.5 415.893151 283.5 507.053234C317.810303 506.959265 352.085998 509.204636 386.084839 513.779456z"/>
      <path d="M180.91516,513.779456 C161.535278,516.371029 142.333375,520.139691 123.413269,525.070605 C163.779785,575.027636 217.890197,606.245217 277.616821,608.129548 L277.829406,608.129548 C239.69751,604.835678 205.535523,569.201541 180.91516,513.779456 Z"/>
      <path d="M180.915161 513.779456C167.38385 482.403611 157.570312 449.548986 151.672303 415.893151L66.9248654 415.893151C78.5478516 455.587748 97.7299805 492.661098 123.413269 525.070605 142.333375 520.139691 161.535278 516.371029 180.915161 513.779456zM443.586731 525.070605C469.27002 492.661098 488.452148 455.587748 500.075135 415.893151L415.327697 415.893151C409.429688 449.548986 399.61615 482.403611 386.084839 513.779456 405.464722 516.371029 424.666625 520.139691 443.586731 525.070605z"/>
    </g>
    <path fill="#004FAC" fill-rule="nonzero" d="M10.1290323 213L617.870968 213C623.464687 213 628 208.457968 628 202.855964 628 197.253959 623.464687 192.711927 617.870968 192.711927L603.315429 192.711927C555.756458 77.942655 444.772335 2.34778905 320.716419.227845203L319.964655.227845203C319.17827.148594918 318.38694.113922601 317.595609.118875427 315.271075-.0396251424 312.941595-.0396251424 310.617061.118875427 309.662519.0941100301 308.707976.138687998 307.758379.247656506L307.639679.247656506C307.516034.247656506 307.397335.247656506 307.27369.247656506 183.227665 2.36760289 72.2435424 77.9525607 24.6845706 192.711927L10.1290323 192.711927C4.53531344 192.711927 0 197.253959 0 202.855964 0 208.457968 4.53531344 213 10.1290323 213zM401.392579 96.566472C375.738628 99.469013 349.946195 101.058973 324.129032 101.321489L324.129032 21.3579517C352.814768 26.6132359 380.031597 53.9595383 401.392579 96.566472zM303.870968 21.3579517L303.870968 101.321489C278.063698 101.058973 252.291047 99.469013 226.646988 96.566472 247.909053 54.2963507 275.02202 26.9995817 303.870968 21.3579517zM303.870968 121.609562L303.870968 192.711927 194.479397 192.711927C199.756584 166.425598 207.516571 140.698975 217.650548 115.878776 246.262097 119.405414 275.046749 121.317326 303.870968 121.609562zM324.129032 121.609562C352.948306 121.317326 381.723065 119.40046 410.324723 115.868869 420.463647 140.694021 428.233524 166.420645 433.520603 192.711927L324.129032 192.711927 324.129032 121.609562zM430.919103 112.926703C444.905872 110.66807 458.086473 108.008232 470.292748 104.967002 490.348034 131.5208 505.976815 161.155454 516.580645 192.711927L454.144657 192.711927C448.862525 165.459735 441.087702 138.752389 430.919103 112.926703zM422.560674 93.7679466C412.90644 72.5387759 400.111612 52.8896594 384.611422 35.4793622 411.694714 47.7235312 435.939107 65.4706409 455.806452 87.59633 445.365833 89.9342134 434.287204 91.989768 422.560674 93.7679466zM205.449219 93.7679466C193.737525 91.9996749 182.653951 89.9441204 172.193548 87.59633 192.080676 65.4161572 216.364636 47.6294211 243.502331 35.3753465 227.942792 52.8005022 215.113345 72.4892451 205.449219 93.7679466zM197.090788 112.926703C186.912298 138.752389 179.137475 165.459735 173.855343 192.711927L111.419355 192.711927C122.028131 161.150501 137.666803 131.5208 157.727035 104.967002 169.913527 108.008232 183.10402 110.66807 197.090788 112.926703zM581.222468 192.711927L537.941627 192.711927C527.382308 159.238587 511.624938 127.637536 491.258065 99.0727616 497.118857 97.2054271 502.64828 95.2390297 507.851279 93.1686154 539.094002 120.747714 564.109941 154.681696 581.222468 192.711927zM489.507246 78.3290008C485.773154 79.606911 481.880796 80.8303376 477.825227 81.9992793 469.125535 71.6917882 459.644405 62.0727855 449.465915 53.221519 463.467521 60.4877798 476.860792 68.8833572 489.507246 78.3290008zM150.184665 82.009185C146.129095 80.8303376 142.236738 79.606911 138.492754 78.3290008 151.158991 68.8784031 164.567099 60.4778729 178.593436 53.2116134 168.395161 62.0628786 158.899194 71.6868354 150.184665 82.009185zM120.183342 93.1686154C125.366557 95.2390297 130.900926 97.2054271 136.781502 99.0727616 116.394847 127.632584 100.627583 159.233635 90.0583729 192.711927L46.7775321 192.711927C63.8999496 154.681696 88.9257812 120.742762 120.183342 93.1686154zM617.870968 415L10.1290323 415C4.53531344 415 0 419.543299 0 425.146868 0 430.750437 4.53531344 435.293736 10.1290323 435.293736L24.6845706 435.293736C72.2435424 550.090089 183.227665 625.706056 307.283581 627.831547L307.659464 627.831547 308.317257 627.831547C309.252016 627.920728 310.186775 627.95541 311.121534 627.930637 312.135427 627.990092 313.080079 628 314.019783 628 315.315587 628 316.512475 628 317.259293 627.920728 318.258348 627.950455 319.252458 627.905865 320.241621 627.786956L320.72631 627.786956C444.767389 625.671374 555.751512 550.075225 603.315429 435.293736L617.870968 435.293736C623.464687 435.293736 628 430.750437 628 425.146868 628 419.543299 623.464687 415 617.870968 415zM226.607421 531.466029C252.261372 528.557722 278.053805 526.972274 303.870968 526.704729L303.870968 606.695542C275.185232 601.43879 247.968403 574.079901 226.607421 531.466029zM324.129032 606.695542L324.129032 526.704729C349.936302 526.972274 375.708953 528.557722 401.353012 531.466029 380.090947 573.747948 352.97798 601.052337 324.129032 606.695542zM324.129032 506.410993L324.129032 435.293736 433.520603 435.293736C428.243416 461.587403 420.483429 487.321207 410.349452 512.143378 381.737903 508.620712 352.953251 506.70331 324.129032 506.410993zM303.870968 506.410993C275.051694 506.70331 246.276935 508.620712 217.675277 512.153288 207.536353 487.326161 199.766476 461.592357 194.479397 435.293736L303.870968 435.293736 303.870968 506.410993zM197.080897 515.096277C183.094128 517.360495 169.913527 520.021074 157.707252 523.063154 137.651966 496.496988 122.023185 466.859018 111.419355 435.293736L173.875126 435.293736C179.152313 462.553534 186.917244 489.263381 197.080897 515.096277zM205.439326 534.265335C215.088615 555.520248 227.883443 575.189715 243.388578 592.619735 216.305286 580.357284 192.055948 562.585402 172.193548 540.433719 182.634167 538.100137 193.712796 536.044009 205.439326 534.265335zM422.550781 534.265335C434.262475 536.029146 445.350996 538.085275 455.826235 540.433719 435.934161 562.625038 411.640311 580.416739 384.497669 592.66928 400.057208 575.239259 412.886655 555.549976 422.550781 534.265335zM430.909212 515.096277C441.087702 489.268335 448.862525 462.553534 454.144657 435.293736L516.580645 435.293736C505.971869 466.859018 490.333197 496.501942 470.272965 523.063154 458.086473 520.021074 444.89598 517.360495 430.909212 515.096277zM46.7775321 435.293736L90.0583729 435.293736C100.617692 468.776418 116.375062 500.381336 136.741935 528.959038 130.876198 530.826894 125.341829 532.79384 120.148721 534.864832 88.905998 507.278035 63.8900586 473.329627 46.7775321 435.293736zM138.492754 549.70859C142.226846 548.430324 146.119204 547.206555 150.174773 546.037287 158.874465 556.347654 168.355595 565.969342 178.534085 574.823079 164.532479 567.55479 151.139208 559.151915 138.492754 549.70859zM477.815335 546.027378C481.870905 547.201601 485.763262 548.430324 489.507246 549.70859 476.841009 559.161825 463.432901 567.5647 449.406564 574.832989 459.604839 565.979252 469.100806 556.347654 477.815335 546.027378zM507.816658 534.864832C502.633443 532.79384 497.099074 530.826894 491.218498 528.959038 511.605153 500.38629 527.372417 468.776418 537.941627 435.293736L581.222468 435.293736C564.10005 473.334581 539.074219 507.278035 507.816658 534.864832z"/>
    <path fill="#004FAC" d="M202.847084,385 C208.436373,385 212.968096,380.466492 212.968096,374.875 L212.968096,324.25 C213.709382,308.296203 201.443584,294.730285 185.501013,293.875 L152.242024,293.875 L152.242024,233.125 C152.242024,227.533508 147.710302,223 142.121012,223 C136.531722,223 132,227.533508 132,233.125 L132,374.875 C132,380.466492 136.531722,385 142.121012,385 C147.710302,385 152.242024,380.466492 152.242024,374.875 L152.242024,314.125 L185.501013,314.125 C189.414998,314.125 192.726072,318.762328 192.726072,324.25 L192.726072,374.875 C192.726072,380.466492 197.257794,385 202.847084,385 Z"/>
    <path fill="#004FAC" fill-rule="nonzero" d="M425.121012,284 C419.531722,284 415,288.514852 415,294.083333 L415,394.916667 C415,400.485148 419.531722,405 425.121012,405 C430.710302,405 435.242024,400.485148 435.242024,394.916667 L435.242024,364.666667 L468.501013,364.666667 C484.443584,363.814901 496.709382,350.30481 495.968096,334.416667 L495.968096,314.25 C496.709382,298.361857 484.443584,284.851766 468.501013,284 L425.121012,284 Z M475.726072,314.25 L475.726072,334.416667 C475.726072,339.881754 472.414998,344.5 468.501013,344.5 L435.242024,344.5 L435.242024,304.166667 L468.501013,304.166667 C472.414998,304.166667 475.726072,308.784911 475.726072,314.25 Z"/>
    <path fill="#004FAC" d="M263.5 385C269.091492 385 273.625 380.462761 273.625 374.866667L273.625 293.8 293.875 293.8C299.466492 293.8 304 289.262761 304 283.666667 304 278.070573 299.466492 273.533333 293.875 273.533333L273.625 273.533333 273.625 243.133333C273.625 237.537239 269.091492 233 263.5 233 257.908508 233 253.375 237.537239 253.375 243.133333L253.375 273.533333 233.125 273.533333C227.533508 273.533333 223 278.070573 223 283.666667 223 289.262761 227.533508 293.8 233.125 293.8L253.375 293.8 253.375 374.866667C253.375 380.462761 257.908508 385 263.5 385zM364.5 385C370.091492 385 374.625 380.462761 374.625 374.866667L374.625 293.8 394.875 293.8C400.466492 293.8 405 289.262761 405 283.666667 405 278.070573 400.466492 273.533333 394.875 273.533333L374.625 273.533333 374.625 243.133333C374.625 237.537239 370.091492 233 364.5 233 358.908508 233 354.375 237.537239 354.375 243.133333L354.375 273.533333 334.125 273.533333C328.533508 273.533333 324 278.070573 324 283.666667 324 289.262761 328.533508 293.8 334.125 293.8L354.375 293.8 354.375 374.866667C354.375 380.462761 358.908508 385 364.5 385z"/>
  </g>
</svg>
